<svg xmlns="http://www.w3.org/2000/svg" viewBox="0 0 640 320">
  <defs>
    <linearGradient id="bg" x1="0" y1="0" x2="1" y2="1">
      <stop offset="0" stop-color="#eef6ff"/>
      <stop offset="1" stop-color="#dfeaf6"/>
    </linearGradient>
    <linearGradient id="navy" x1="0" y1="0" x2="1" y2="1">
      <stop offset="0" stop-color="#0a2540"/>
      <stop offset="1" stop-color="#1a3d6b"/>
    </linearGradient>
  </defs>
  <rect width="640" height="320" rx="18" fill="url(#bg)"/>
  <path d="M0 245 C120 190 210 250 330 198 C450 146 522 170 640 116 L640 320 L0 320Z" fill="#d4e5f7"/>
  <rect x="64" y="62" width="150" height="190" rx="14" fill="#fff" stroke="#cbd8e7"/>
  <path d="M122 74 l38 0 l24 38 l-26 20 v100 h-70 v-100 l-26-20z" fill="url(#navy)" opacity=".92"/>
  <path d="M118 74 c8 18 34 18 42 0" fill="none" stroke="#67e8f9" stroke-width="5" stroke-linecap="round"/>
  <rect x="260" y="72" width="254" height="178" rx="14" fill="#fff" stroke="#cbd8e7"/>
  <rect x="292" y="104" width="62" height="52" rx="8" fill="#183f6d"/>
  <rect x="374" y="104" width="62" height="52" rx="8" fill="#5e7fa6"/>
  <rect x="456" y="104" width="30" height="116" rx="8" fill="#c59a36"/>
  <path d="M292 188 h132 M292 214 h96" stroke="#9aacbf" stroke-width="8" stroke-linecap="round"/>
  <circle cx="542" cy="92" r="24" fill="#ffffff" stroke="#9fb4ce"/>
  <path d="M530 92 l8 8 l16-17" fill="none" stroke="#2563eb" stroke-width="6" stroke-linecap="round" stroke-linejoin="round"/>
</svg>
